<?xml version="1.0" standalone="no"?><!DOCTYPE svg PUBLIC "-//W3C//DTD SVG 1.1//EN" "http://www.w3.org/Graphics/SVG/1.1/DTD/svg11.dtd"><svg t="1560910244579" class="icon" style="" viewBox="0 0 1024 1024" version="1.1" xmlns="http://www.w3.org/2000/svg" p-id="23308" xmlns:xlink="http://www.w3.org/1999/xlink" width="200" height="200"><defs><style type="text/css"></style></defs><path d="M380.770023 446.359922H65.644078a64.999989 64.999989 0 0 1-65.639988-65.589989V65.643988A64.999989 64.999989 0 0 1 65.643078 0.004H380.770023a64.999989 64.999989 0 0 1 65.639989 65.639988V380.769933a64.999989 64.999989 0 0 1-65.639989 65.589989zM78.772076 367.589935H367.590025V78.772986H78.770076z m301.997947 656.406885H65.644078a64.999989 64.999989 0 0 1-65.639988-65.639988V643.279887a64.999989 64.999989 0 0 1 65.639988-65.639989H380.770023a64.999989 64.999989 0 0 1 65.639989 65.639989v315.074945a64.999989 64.999989 0 0 1-65.639989 65.639988zM78.823076 945.227834h288.767949V656.409885H78.770076z m879.583846 78.768986H643.280977a64.999989 64.999989 0 0 1-65.639989-65.639988V643.279887a65.011989 65.011989 0 0 1 65.639989-65.639989h315.074945a65.011989 65.011989 0 0 1 65.639988 65.639989v315.074945a64.999989 64.999989 0 0 1-65.639988 65.639988zM656.409975 945.227834h288.819949V656.409885h-288.819949zM958.355922 446.359922H643.280977a64.999989 64.999989 0 0 1-65.639989-65.588989V65.643988A64.999989 64.999989 0 0 1 643.279977 0.004h315.074945a64.999989 64.999989 0 0 1 65.639988 65.639988V380.769933a64.999989 64.999989 0 0 1-65.639988 65.639989zM656.409975 367.590935h288.819949V78.769986h-288.819949z m0 0" fill="#A5A5A5" p-id="23309"></path></svg>