<?xml version="1.0" standalone="no"?><!DOCTYPE svg PUBLIC "-//W3C//DTD SVG 1.1//EN" "http://www.w3.org/Graphics/SVG/1.1/DTD/svg11.dtd"><svg t="1560913501588" class="icon" style="" viewBox="0 0 1024 1024" version="1.1" xmlns="http://www.w3.org/2000/svg" p-id="25897" xmlns:xlink="http://www.w3.org/1999/xlink" width="200" height="200"><defs><style type="text/css"></style></defs><path d="M991.25248 766.17216h-293.93408c-13.55776 0-27.136-15.75424-27.136-31.49824s13.568-31.48288 27.136-31.48288h293.93408c13.56288 0 27.15136 15.73888 27.15136 31.48288s-13.57312 31.49824-27.15136 31.49824m0-158.40256h-293.93408c-13.55776 0-27.136-15.72864-27.136-31.47776 0-15.73376 13.568-31.47776 27.136-31.47776h293.93408c13.56288 0 27.15136 15.73376 27.15136 31.47776 0 15.73888-13.57312 31.47776-27.15136 31.47776m-118.92224-419.80928c-3.3024 3.32288-297.54368 293.03808-297.54368 293.03808v538.9312l-253.61408-126.8224v-412.1088L43.10528 197.91872c-3.3024-3.32288-6.60992-6.63552-9.91744-6.63552C13.37856 171.35616 3.46112 144.7936 3.46112 114.90816c0-59.77088 49.54624-109.57824 109.01504-109.57824h680.56576c59.46368 0 109.0304 49.81248 109.0304 109.57824 0.01024 29.88544-13.21984 56.448-29.74208 73.05216m-79.28832-122.85952H112.47616c-26.42432 0-49.54624 23.23968-49.54624 49.80224 0 13.29152 3.30752 26.56768 13.21472 33.2032l3.3024 3.31776 294.03136 278.94272 11.10016 18.9184v412.12928l126.80192 63.41632V449.29024l7.4496-18.9184 297.33376-275.62496 3.30752-3.32288c9.91744-9.95328 13.21472-19.92192 13.21472-33.19296 9.90208-29.89056-13.2096-53.13024-39.64416-53.13024m-95.72352 796.47232h293.93408c13.56288 0 27.15136 15.73376 27.15136 31.48288 0 15.73888-13.57312 31.47776-27.15136 31.47776h-293.93408c-13.55776 0-27.136-15.72864-27.136-31.47776 0.00512-19.68128 10.17856-31.48288 27.136-31.48288" fill="#999999" p-id="25898"></path></svg>